<svg width="136" height="16" viewBox="0 0 136 16" fill="none" xmlns="http://www.w3.org/2000/svg">
<path d="M6.12662 10.695H4.25762L3.50162 13.929H1.25462L2.01062 10.695H0.456617L0.918617 8.658H2.49362L3.01862 6.432H1.50662L1.96862 4.395H3.50162L4.23662 1.371H6.46262L5.74862 4.395H7.61762L8.35262 1.371H10.5786L9.86462 4.395H11.3766L10.8516 6.432H9.38162L8.85662 8.658H10.3056L9.80162 10.695H8.37362L7.61762 13.929H5.37062L6.12662 10.695ZM4.74062 8.658H6.60962L7.13462 6.432H5.26562L4.74062 8.658ZM18.0627 8.931L18.4407 11.43H18.5457L18.9657 8.91L21.7797 0.299999H24.8037L19.3437 15.105H17.2857L11.7837 0.299999H15.1227L18.0627 8.931ZM26.1595 0.299999H29.0365V15H26.1595V0.299999ZM38.1958 11.052C38.1958 10.604 38.0278 10.24 37.6918 9.96C37.3698 9.68 36.9568 9.428 36.4528 9.204C35.9628 8.966 35.4238 8.728 34.8358 8.49C34.2618 8.238 33.7228 7.937 33.2188 7.587C32.7288 7.223 32.3158 6.775 31.9797 6.243C31.6578 5.711 31.4968 5.032 31.4968 4.206C31.4968 3.492 31.6158 2.876 31.8538 2.358C32.0918 1.826 32.4278 1.385 32.8618 1.035C33.3098 0.684999 33.8348 0.425999 34.4368 0.258C35.0388 0.0899992 35.7108 0.00599903 36.4528 0.00599903C37.3068 0.00599903 38.1118 0.0829993 38.8678 0.237C39.6238 0.377 40.2468 0.586999 40.7368 0.866999L39.8338 3.282C39.5258 3.086 39.0638 2.911 38.4478 2.757C37.8318 2.589 37.1668 2.505 36.4528 2.505C35.7808 2.505 35.2628 2.638 34.8988 2.904C34.5488 3.17 34.3738 3.527 34.3738 3.975C34.3738 4.395 34.5348 4.745 34.8568 5.025C35.1928 5.305 35.6058 5.564 36.0958 5.802C36.5998 6.04 37.1388 6.285 37.7128 6.537C38.3008 6.789 38.8398 7.097 39.3298 7.461C39.8338 7.811 40.2468 8.252 40.5688 8.784C40.9048 9.302 41.0728 9.953 41.0728 10.737C41.0728 11.521 40.9398 12.2 40.6738 12.774C40.4218 13.334 40.0578 13.803 39.5818 14.181C39.1198 14.559 38.5528 14.839 37.8808 15.021C37.2228 15.203 36.4948 15.294 35.6968 15.294C34.6468 15.294 33.7228 15.196 32.9248 15C32.1268 14.804 31.5388 14.608 31.1608 14.412L32.0848 11.955C32.2388 12.039 32.4348 12.13 32.6728 12.228C32.9248 12.326 33.2048 12.417 33.5128 12.501C33.8208 12.585 34.1428 12.655 34.4788 12.711C34.8288 12.767 35.1858 12.795 35.5498 12.795C36.4038 12.795 37.0548 12.655 37.5028 12.375C37.9648 12.081 38.1958 11.64 38.1958 11.052ZM43.2835 0.299999H46.1605V15H43.2835V0.299999ZM59.4148 2.862H55.1308V15H52.2538V2.862H47.9488V0.299999H59.4148V2.862ZM67.2553 11.052C67.2553 10.604 67.0873 10.24 66.7513 9.96C66.4293 9.68 66.0163 9.428 65.5123 9.204C65.0223 8.966 64.4833 8.728 63.8953 8.49C63.3213 8.238 62.7823 7.937 62.2783 7.587C61.7883 7.223 61.3753 6.775 61.0393 6.243C60.7173 5.711 60.5563 5.032 60.5563 4.206C60.5563 3.492 60.6753 2.876 60.9133 2.358C61.1513 1.826 61.4873 1.385 61.9213 1.035C62.3693 0.684999 62.8943 0.425999 63.4963 0.258C64.0983 0.0899992 64.7703 0.00599903 65.5123 0.00599903C66.3663 0.00599903 67.1713 0.0829993 67.9273 0.237C68.6833 0.377 69.3063 0.586999 69.7963 0.866999L68.8933 3.282C68.5853 3.086 68.1233 2.911 67.5073 2.757C66.8913 2.589 66.2263 2.505 65.5123 2.505C64.8403 2.505 64.3223 2.638 63.9583 2.904C63.6083 3.17 63.4333 3.527 63.4333 3.975C63.4333 4.395 63.5943 4.745 63.9163 5.025C64.2523 5.305 64.6653 5.564 65.1553 5.802C65.6593 6.04 66.1983 6.285 66.7723 6.537C67.3603 6.789 67.8993 7.097 68.3893 7.461C68.8933 7.811 69.3063 8.252 69.6283 8.784C69.9643 9.302 70.1323 9.953 70.1323 10.737C70.1323 11.521 69.9993 12.2 69.7333 12.774C69.4813 13.334 69.1173 13.803 68.6413 14.181C68.1793 14.559 67.6123 14.839 66.9403 15.021C66.2823 15.203 65.5543 15.294 64.7563 15.294C63.7063 15.294 62.7823 15.196 61.9843 15C61.1863 14.804 60.5983 14.608 60.2203 14.412L61.1443 11.955C61.2983 12.039 61.4943 12.13 61.7323 12.228C61.9843 12.326 62.2643 12.417 62.5723 12.501C62.8803 12.585 63.2023 12.655 63.5383 12.711C63.8883 12.767 64.2453 12.795 64.6093 12.795C65.4633 12.795 66.1143 12.655 66.5623 12.375C67.0243 12.081 67.2553 11.64 67.2553 11.052ZM72.0491 0.299999H80.7641V2.862H74.9261V6.285H80.2391V8.847H74.9261V12.438H80.8691V15H72.0491V0.299999ZM83.0207 0.299999C83.3147 0.258 83.6437 0.223 84.0077 0.194999C84.3857 0.166999 84.7707 0.146 85.1627 0.132C85.5547 0.117999 85.9327 0.110999 86.2967 0.110999C86.6747 0.0969991 87.0107 0.0899992 87.3047 0.0899992C88.6067 0.0899992 89.7197 0.271999 90.6437 0.636C91.5677 0.999999 92.3167 1.511 92.8907 2.169C93.4647 2.827 93.8847 3.611 94.1507 4.521C94.4167 5.431 94.5497 6.432 94.5497 7.524C94.5497 8.518 94.4237 9.477 94.1717 10.401C93.9197 11.325 93.4997 12.144 92.9117 12.858C92.3237 13.572 91.5467 14.146 90.5807 14.58C89.6287 15.014 88.4457 15.231 87.0317 15.231C86.8077 15.231 86.5067 15.224 86.1287 15.21C85.7647 15.196 85.3797 15.175 84.9737 15.147C84.5817 15.133 84.2037 15.112 83.8397 15.084C83.4757 15.07 83.2027 15.049 83.0207 15.021V0.299999ZM87.5357 2.652C87.2277 2.652 86.9127 2.659 86.5907 2.673C86.2827 2.687 86.0517 2.708 85.8977 2.736V12.585C85.9537 12.599 86.0447 12.613 86.1707 12.627C86.3107 12.627 86.4577 12.634 86.6117 12.648C86.7657 12.648 86.9127 12.655 87.0527 12.669C87.1927 12.669 87.2977 12.669 87.3677 12.669C88.1797 12.669 88.8517 12.529 89.3837 12.249C89.9297 11.955 90.3567 11.57 90.6647 11.094C90.9867 10.618 91.2107 10.072 91.3367 9.456C91.4627 8.826 91.5257 8.182 91.5257 7.524C91.5257 6.95 91.4697 6.376 91.3577 5.802C91.2457 5.214 91.0357 4.689 90.7277 4.227C90.4337 3.765 90.0277 3.387 89.5097 3.093C88.9917 2.799 88.3337 2.652 87.5357 2.652ZM96.1554 7.65C96.1554 5.2 96.6944 3.317 97.7724 2.001C98.8504 0.670999 100.39 0.00599903 102.392 0.00599903C103.442 0.00599903 104.359 0.187999 105.143 0.552C105.927 0.915999 106.578 1.434 107.096 2.106C107.614 2.778 107.999 3.583 108.251 4.521C108.503 5.459 108.629 6.502 108.629 7.65C108.629 10.1 108.083 11.99 106.991 13.32C105.913 14.636 104.38 15.294 102.392 15.294C101.328 15.294 100.404 15.112 99.6204 14.748C98.8364 14.384 98.1854 13.866 97.6674 13.194C97.1634 12.522 96.7854 11.717 96.5334 10.779C96.2814 9.841 96.1554 8.798 96.1554 7.65ZM99.1794 7.65C99.1794 8.392 99.2424 9.078 99.3684 9.708C99.4944 10.324 99.6834 10.856 99.9354 11.304C100.201 11.752 100.537 12.102 100.943 12.354C101.349 12.606 101.832 12.732 102.392 12.732C103.414 12.732 104.205 12.333 104.765 11.535C105.325 10.737 105.605 9.442 105.605 7.65C105.605 6.936 105.542 6.271 105.416 5.655C105.304 5.039 105.122 4.5 104.87 4.038C104.618 3.576 104.289 3.219 103.883 2.967C103.477 2.701 102.98 2.568 102.392 2.568C101.37 2.568 100.579 2.981 100.019 3.807C99.4594 4.619 99.1794 5.9 99.1794 7.65ZM114.34 7.335L113.185 5.025H113.08L113.416 7.335V15H110.686V0.194999H112.786L118.351 8.028L119.464 10.275H119.569L119.233 8.028V0.299999H121.963V15.105H119.863L114.34 7.335ZM131.733 11.745H127.218L126.105 15H123.228L128.52 0.194999H130.641L135.933 15H132.909L131.733 11.745ZM127.953 9.435H131.103L130.011 6.159L129.57 3.849H129.465L129.024 6.18L127.953 9.435Z" fill="black"/>
</svg>
