<svg xmlns="http://www.w3.org/2000/svg"><style>:root svg:not(:target){display:none}</style><svg fill="none" id="advantages-triangle" viewBox="0 0 320 37"><path fill-rule="evenodd" clip-rule="evenodd" d="M-225 0h384v37L-225 0ZM543 0H159v37L543 0Z" fill="#fff"></path></svg><svg fill="none" id="burger-icon" viewBox="0 0 74 69"><path d="M69.054 46H4.262c-2.3 0-4.121 2-4.121 4.3v3.5c0 2.3 1.82 4.2 4.121 4.2h.959v1c0 5.5 4.313 9.9 9.488 9.9h43.898c5.272 0 9.489-4.5 9.489-9.9v-1h.958c2.205 0 4.122-1.9 4.122-4.3v-3.5c0-2.2-1.821-4.2-4.122-4.2Zm-3.738 13c0 3.8-2.97 6.9-6.613 6.9h-44.09C10.972 65.9 8 62.8 8 59v-1h57.316v1Zm4.984-5.3c0 .7-.575 1.3-1.246 1.3H4.262c-.67 0-1.246-.6-1.246-1.3v-3.5c0-.6.575-1.2 1.246-1.2H69.15c.671 0 1.246.6 1.246 1.3v3.4H70.3ZM15.668 37.9l5.176 4 5.271-4 5.272 4 5.271-4 5.176 4 5.271-4 5.272 4 5.272-4 5.271 4 6.039-4.7-1.63-2.4-4.409 3.3-5.271-4-5.272 4-5.272-4-5.271 4-5.176-4-5.271 4-5.272-4-5.271 4-5.176-4-5.272 4-4.409-3.3-1.725 2.4 6.134 4.7 5.272-4ZM68.096 31.1c0-.6.096-2.6 0-3C67.425 12.5 53.623 0 36.658 0 19.693 0 5.795 12.5 5.125 28.1v3h62.97ZM36.658 3C51.993 3 64.645 14.2 65.22 28.1H8C8.67 14.2 21.323 3 36.658 3Z" fill="#81B3D2"></path><path d="M36.658 17c1.059 0 1.917-.895 1.917-2s-.858-2-1.917-2c-1.059 0-1.917.895-1.917 2s.858 2 1.917 2ZM28.99 12.1c1.06 0 1.917-.896 1.917-2 0-1.105-.858-2-1.917-2-1.058 0-1.916.895-1.916 2 0 1.104.858 2 1.916 2ZM44.326 12.1c1.059 0 1.917-.896 1.917-2 0-1.105-.858-2-1.917-2-1.059 0-1.917.895-1.917 2 0 1.104.858 2 1.917 2Z" fill="#81B3D2"></path></svg><svg fill="none" id="check-mark-icon" viewBox="0 0 22 16"><path d="M21.805 1.307 20.76.222c-.285-.296-.856-.296-1.141 0L8.298 11.957 2.403 5.843c-.286-.296-.856-.296-1.142 0L.214 6.928c-.285.295-.285.887 0 1.183l7.419 7.692c.19.197.38.197.57.197.191 0 .381-.099.571-.197L21.615 2.49c.476-.296.476-.789.19-1.183Z" fill="#333"></path></svg><svg fill="none" id="gift-icon" viewBox="0 0 78 76"><path d="M74.443 22.124h-30c16.721-6.8 18.073-11.1 17.459-13.5-1.353-3.9-6.886-6.9-12.05-5.3-6.762 2.1-8.606 10.3-10.45 16.2-2.336-6-4.55-13.6-9.836-17.5-1.476-1.1-3.689-2.2-7.009-2-4.918.4-11.926 5.3-8.975 10.8 2.705 5.3 11.68 8.7 17.705 11.4H3.869c-1.967 0-3.443 1.3-3.443 2.8v11.2c0 1.6 1.599 2.8 3.443 2.8h.369v36H74.32v-36h.123c1.967 0 3.442-1.3 3.442-2.8v-11.2c0-1.6-1.598-2.9-3.442-2.9ZM51.82 5.824c2.582-.3 6.024 1.3 6.393 3.2.492 2.7-4.057 5.2-6.147 6.3-3.074 1.7-6.025 2.6-8.853 4 .984-3.7 3.074-12.9 8.607-13.5Zm-27.787 9.8c-2.705-1.5-7.869-4.4-7.746-7.7.123-3.6 7.008-6.5 10.697-3.8 4.672 3.3 6.885 11 8.606 16.4-3.934-1.6-7.623-2.8-11.557-4.9Zm7.254 56.4H7.803v-33h23.484v33Zm0-36H4.115v-10.9h27.172v10.9Zm12.295 36h-8.73v-46.9h8.73v46.9Zm27.05 0H47.27v-33h23.484v33h-.123Zm3.565-36H47.27v-10.9h26.927v10.9Z" fill="#81B3D2"></path></svg><svg fill="none" id="house-icon" viewBox="0 0 81 73"><path d="M31.957 65.3H48.98V41.4H31.957v23.9Zm13.937-2.9H35.042V44.3h10.745v18.1h.107Z" fill="#81B3D2"></path><path d="m77.808 39.4 2.234-2.1-10.531-9.9V.4H54.83v13.2L40.255 0 .575 37.4l2.234 2.1 8.297-7.8v37.8H6.957v2.9h67.98v-2.9H69.51V31.6l8.297 7.8Zm-19.893-36h8.404v21.1l-8.404-7.9V3.4Zm8.51 66H14.298V28.7L40.255 4.2 66.32 28.7v40.7h.106Z" fill="#81B3D2"></path><path d="M32.277 27.2c0 4.3 3.723 7.8 8.191 7.8 4.575 0 8.298-3.5 8.298-7.8s-3.723-7.7-8.298-7.7c-4.574 0-8.191 3.4-8.191 7.7Zm8.191-5c2.872 0 5.32 2.2 5.32 5 0 2.7-2.341 5-5.32 5-2.872 0-5.319-2.2-5.319-5 0-2.7 2.447-5 5.32-5ZM21.745 41.4h-3.192v3.9h3.192v-3.9ZM28.021 41.4H24.83v3.9h3.191v-3.9ZM21.745 47.4h-3.192v3.9h3.192v-3.9ZM28.021 47.4H24.83v3.9h3.191v-3.9ZM55.68 41.4h-3.19v3.9h3.19v-3.9ZM62.064 41.4h-3.192v3.9h3.192v-3.9ZM55.68 47.4h-3.19v3.9h3.19v-3.9ZM62.064 47.4h-3.192v3.9h3.192v-3.9Z" fill="#81B3D2"></path></svg><svg fill="none" id="index-hero-zigzag" viewBox="0 0 1200 57"><path d="M249.6 23.7 0 0v57h600L249.6 0v23.7ZM950.4 23.7V0L600 57h599.9V0L950.4 23.7Z" fill="#fff"></path></svg><svg fill="none" id="like-icon" viewBox="0 0 23 21"><path d="m12.964 3.78-.628 3.045-.627 2.625h9.096v2.205L17.773 18.9h-9.41V8.4l4.6-4.62ZM2.09 10.5v8.4-8.4ZM13.8 0 6.9 6.93c-.418.315-.627.84-.627 1.47v10.5c0 1.155.94 2.1 2.09 2.1h9.41c.836 0 1.568-.525 1.881-1.26l3.137-7.455c.104-.21.104-.525.104-.735v-2.1H23c0-1.155-.94-2.1-2.09-2.1h-6.587l1.045-4.83v-.315c0-.42-.209-.84-.418-1.155L13.8 0ZM4.182 8.4H0V21h4.182V8.4Z" fill="#000"></path></svg><svg fill="none" id="mail-icon" viewBox="0 0 58 58"><path fill="#E6E6E6" d="M0 0h58v58H0z"></path><path d="M29 31c-.3 0-.5-.1-1-.3L21 27v7c0 .5.5 1 1 1h14c.5 0 1-.5 1-1v-7l-7 3.7c-.5.2-.7.3-1 .3Zm7-8H22c-.5 0-1 .5-1 1v.8l8 4.2 8-4.2V24c0-.5-.5-1-1-1Z" fill="#000"></path></svg><svg fill="none" id="phone-icon" viewBox="0 0 58 58"><path fill="#E6E6E6" d="M0 0h58v58H0z"></path><path d="M23.6 27.8c1.4 2.8 3.8 5.1 6.6 6.6l2.2-2.2c.3-.3.7-.4 1-.2 1.1.4 2.3.6 3.6.6.6 0 1 .4 1 1V37c0 .6-.4 1-1 1-9.4 0-17-7.6-17-17 0-.6.4-1 1-1h3.5c.6 0 1 .4 1 1 0 1.2.2 2.4.6 3.6.1.3 0 .7-.2 1l-2.3 2.2Z" fill="#010101"></path></svg><svg fill="none" id="telegram-icon" viewBox="0 0 24 24"><path d="m22.44 4.622-3.17 14.944c-.239 1.055-.862 1.317-1.748.82l-4.828-3.558-2.33 2.242c-.258.258-.473.473-.97.473l.347-4.917 8.948-8.086c.39-.346-.084-.54-.604-.192L7.022 13.314 2.26 11.823c-1.036-.323-1.055-1.036.216-1.533l18.627-7.177c.863-.323 1.617.192 1.336 1.51Z" fill="#fff"></path></svg><svg fill="none" id="vk-icon" viewBox="0 0 24 24"><g clip-path="url(#vk-icon_0)"><path fill-rule="evenodd" clip-rule="evenodd" d="M23.45 5.948c.166-.546 0-.948-.795-.948H20.03c-.668 0-.976.347-1.143.73 0 0-1.335 3.196-3.226 5.272-.612.602-.89.793-1.224.793-.167 0-.418-.191-.418-.738V5.948c0-.656-.184-.948-.74-.948H9.151c-.417 0-.668.304-.668.593 0 .621.946.765 1.043 2.513v3.798c0 .833-.153.984-.487.984-.89 0-3.055-3.211-4.34-6.885C4.45 5.288 4.198 5 3.527 5H.9c-.75 0-.9.347-.9.73 0 .682.89 4.07 4.145 8.551C6.315 17.341 9.37 19 12.153 19c1.669 0 1.875-.368 1.875-1.003v-2.313c0-.737.158-.884.687-.884.39 0 1.057.192 2.615 1.667C19.11 18.216 19.403 19 20.405 19h2.625c.75 0 1.126-.368.91-1.096-.238-.724-1.088-1.775-2.215-3.022-.612-.71-1.53-1.475-1.809-1.858-.389-.491-.278-.71 0-1.147 0 0 3.2-4.426 3.533-5.929h.001Z" fill="#fff"></path></g><defs><clipPath id="vk-icon_0"><path fill="#fff" d="M0 0h24v24H0z"></path></clipPath></defs></svg><svg fill="none" id="youtube-icon" viewBox="0 0 24 24"><path d="M19.181 5H4.813C3.306 5 2 6.3 2 7.8v8.3C2 17.7 3.306 19 4.813 19h14.368c1.608 0 2.814-1.3 2.814-2.8V7.8c.1-1.5-1.206-2.8-2.814-2.8ZM9.033 15.4V8.6l6.833 3.4-6.833 3.4Z" fill="#fff"></path></svg></svg>